# xmcd
#
# Track frame offsets:
#	150
#	11481
#	22193
#	31530
#	43548
#	54485
#	65061
#	77880
#	91180
#	102813
#	111516
#	125008
#	135305
#	144518
#	157450
#	169230
#	179315
#	190055
#	201908
#	212305
#	222955
#	233418
#	244608
#
# Disc length: 3454 seconds
#
# Revision: 0
# Processed by: cddbd v1.5.1PL0 Copyright (c) Steve Scherf et al.
# Submitted via: dBpowerAMP V4.0
#
DISCID=3e0d7c17
DTITLE=Patsy Cline - Walking And Dreaming
DYEAR=2005
DGENRE=Country
TTITLE0=The Heart You Break My Be Yours
TTITLE1=Stop, Look And Listen
TTITLE2=Love Me, Love Me Honey Do
TTITLE3=No More
TTITLE4=Angel
TTITLE5=Too Many Secrets
TTITLE6=Yes I Understand
TTITLE7=If I Could See The World
TTITLE8=Cry Not For Me
TTITLE9=Come On In
TTITLE10=Life's Railway  To Heaven
TTITLE11=Turn The Cards Slowly
TTITLE12=Try Again
TTITLE13=Fingerprints
TTITLE14=Walkin' After Midnight
TTITLE15=Walking Dreams
TTITLE16=I Cried All The Way To The Alter
TTITLE17=In Care Of The Blues
TTITLE18=Three Cigarettes In The Ashtray
TTITLE19=I've Loved And Lost Again
TTITLE20=Honky Tonk Merry Go Around
TTITLE21=Just Out Of Reach
TTITLE22=Then You'll Know
EXTD=
EXTT0=
EXTT1=
EXTT2=
EXTT3=
EXTT4=
EXTT5=
EXTT6=
EXTT7=
EXTT8=
EXTT9=
EXTT10=
EXTT11=
EXTT12=
EXTT13=
EXTT14=
EXTT15=
EXTT16=
EXTT17=
EXTT18=
EXTT19=
EXTT20=
EXTT21=
EXTT22=
PLAYORDER=
